<svg width="20" height="21" viewBox="0 0 20 21" fill="none" xmlns="http://www.w3.org/2000/svg">
<g clip-path="url(#clip0_187_14832)">
<path d="M0.118164 20.5588V2.70266H9.94778C10.5366 2.70266 11.0326 2.2809 11.1272 1.69976L11.2171 1.14866C11.3143 0.551541 11.824 0.118156 12.4291 0.118156H19.0819V17.9742H9.2523C8.66355 17.9742 8.16745 18.3959 8.07278 18.977L7.98295 19.5282C7.88568 20.1254 7.37597 20.5588 6.77095 20.5588L0.118164 20.5588ZM3.50032 17.1766H7.58943C8.17824 17.1766 8.67428 16.7548 8.76889 16.1737L8.85872 15.6225C8.95605 15.0254 9.46582 14.592 10.0708 14.592H14.0416C15.1043 14.592 15.9689 13.7274 15.9689 12.6646C15.9689 11.6019 15.1043 10.7372 14.0416 10.7372H10.4314C9.84266 10.7372 9.34663 11.159 9.25195 11.7401L9.16213 12.2913C9.0648 12.8884 8.55503 13.3218 7.95007 13.3218H3.50032V17.1766ZM3.50032 9.94036L8.76434 9.95115C9.35557 9.95112 9.85155 9.52936 9.94622 8.94831L10.0379 8.38558C10.1352 7.78843 10.6449 7.35505 11.25 7.35505H14.0416C15.1043 7.35505 15.9689 6.49044 15.9689 5.42769C15.9689 4.36494 15.1043 3.50031 14.0416 3.50031H11.6106C11.0218 3.50031 10.5257 3.9221 10.4311 4.5032L10.3413 5.05431C10.244 5.65145 9.73426 6.08484 9.12924 6.08484H3.50032V9.94036Z" fill="#2B2A2A"/>
</g>
<defs>
<clipPath id="clip0_187_14832">
<rect width="19.2" height="20.6769" fill="white"/>
</clipPath>
</defs>
</svg>
