<svg width="238" height="32" viewBox="0 0 238 32" fill="none" xmlns="http://www.w3.org/2000/svg">
<rect width="32" height="32" rx="3.2" fill="#FCE776"/>
<rect width="32" height="32" rx="3.2" fill="white" fill-opacity="0.3"/>
<g clip-path="url(#clip0_228_13098)">
<path d="M6.51814 26.2204V8.36428H16.3478C16.9366 8.36428 17.4326 7.94253 17.5272 7.36139L17.617 6.81029C17.7143 6.21317 18.224 5.77979 18.829 5.77979H25.4818V23.6358H15.6523C15.0635 23.6358 14.5674 24.0575 14.4728 24.6386L14.3829 25.1898C14.2857 25.787 13.7759 26.2204 13.1709 26.2204L6.51814 26.2204ZM9.9003 22.8382H13.9894C14.5782 22.8382 15.0743 22.4165 15.1689 21.8354L15.2587 21.2841C15.356 20.687 15.8658 20.2536 16.4708 20.2536H20.4415C21.5043 20.2536 22.3689 19.389 22.3689 18.3262C22.3689 17.2635 21.5043 16.3988 20.4415 16.3988H16.8314C16.2426 16.3988 15.7466 16.8206 15.6519 17.4017L15.5621 17.953C15.4648 18.5501 14.955 18.9834 14.35 18.9834H9.9003V22.8382ZM9.9003 15.602L15.1643 15.6128C15.7555 15.6127 16.2515 15.191 16.3462 14.6099L16.4379 14.0472C16.5351 13.4501 17.0449 13.0167 17.6499 13.0167H20.4415C21.5043 13.0167 22.3689 12.1521 22.3689 11.0893C22.3689 10.0266 21.5043 9.16194 20.4415 9.16194H18.0106C17.4218 9.16194 16.9257 9.58373 16.831 10.1648L16.7413 10.7159C16.644 11.3131 16.1342 11.7465 15.5292 11.7465H9.9003V15.602Z" fill="#2B2A2A"/>
</g>
<g clip-path="url(#clip1_228_13098)">
<path d="M73.8976 14.8604C73.8976 14.8604 74.0861 13.0984 75.7602 12.0641C76.0701 11.8653 76.4742 11.7741 76.8306 11.6935C77.1647 11.618 77.6267 11.5747 78.0979 11.5747C78.92 11.5747 79.6762 11.7039 80.2272 11.9384C81.8774 12.6409 82.7142 14.3529 82.7142 17.0267V25.164H79.1669V17.8011C79.1669 17.2427 79.1135 16.7462 79.0082 16.3252C78.9017 15.8987 78.7385 15.5345 78.5231 15.2427C78.3043 14.9466 78.0228 14.7205 77.6864 14.5706C77.3538 14.422 76.9633 14.3466 76.5258 14.3466C76.0879 14.3466 75.6993 14.4221 75.3709 14.5709C75.0393 14.7206 74.7602 14.9466 74.5416 15.2426C74.3262 15.5343 74.1629 15.8985 74.0562 16.3252C73.9509 16.7465 73.8976 17.243 73.8976 17.8011V25.164H70.3503V11.9613H73.8976V14.8604ZM117.056 11.9613H113.508V25.164H117.056V17.8011C117.056 17.243 117.109 16.7465 117.214 16.3252C117.321 15.8985 117.484 15.5343 117.7 15.2426C117.918 14.9466 118.197 14.7206 118.529 14.5709C118.857 14.4221 119.246 14.3466 119.684 14.3466C120.121 14.3466 120.512 14.422 120.845 14.5706C121.181 14.7205 121.462 14.9466 121.681 15.2427C121.897 15.5345 122.06 15.8987 122.166 16.3252C122.272 16.7462 122.325 17.2427 122.325 17.8011V25.164H125.872V17.0267C125.872 14.3529 125.036 12.6409 123.385 11.9384C122.834 11.7039 122.078 11.5747 121.256 11.5747C120.785 11.5747 120.323 11.618 119.989 11.6935C119.632 11.7741 119.228 11.8653 118.918 12.0641C117.244 13.0984 117.056 14.8604 117.056 14.8604V11.9613ZM53.8591 16.861C53.5594 16.503 53.1984 16.1948 52.7862 15.9448C52.37 15.6928 51.9165 15.4885 51.4383 15.3375L51.135 15.2417L51.4191 15.0961C51.7257 14.9389 52.0228 14.7302 52.3022 14.4758C52.581 14.2223 52.8303 13.9264 53.0433 13.5965C53.2551 13.2685 53.4262 12.8925 53.5516 12.4792C53.6765 12.0669 53.7398 11.6165 53.7398 11.1404V11.1274C53.7398 10.6841 53.6869 10.2536 53.5824 9.8481C53.4784 9.44493 53.3161 9.06572 53.1004 8.7211C52.8843 8.37665 52.6083 8.06055 52.2799 7.78167C51.95 7.50224 51.5563 7.26114 51.1096 7.06512C50.6599 6.86744 50.1475 6.71157 49.5867 6.60183C49.0233 6.49198 48.3864 6.43628 47.6935 6.43628H40.1239V25.164H47.8355C48.947 25.164 49.948 25.0461 50.8109 24.8135C51.6692 24.5821 52.4088 24.2392 53.0091 23.7945C53.6047 23.3527 54.0629 22.7952 54.371 22.1376C54.6803 21.4771 54.8371 20.7087 54.8371 19.8537V19.8277C54.8371 19.1914 54.7484 18.6213 54.5734 18.1333C54.3982 17.6459 54.1579 17.2178 53.8591 16.861ZM43.6712 9.33813H47.1901C47.6312 9.33813 48.0309 9.39671 48.3782 9.51228C48.7276 9.629 49.0258 9.79101 49.2646 9.99384C49.507 10.1995 49.6903 10.4547 49.8095 10.7523C49.9266 11.0459 49.986 11.3718 49.986 11.721V11.747C49.986 12.0964 49.9266 12.4224 49.8094 12.7161C49.6904 13.0132 49.5072 13.2683 49.2646 13.4744C49.0248 13.6777 48.7266 13.8397 48.3782 13.9557C48.0321 14.0712 47.6324 14.1298 47.1901 14.1298H43.6712V9.33813ZM50.8509 19.6469C50.8509 20.0391 50.7872 20.4017 50.6617 20.7245C50.5337 21.0536 50.328 21.3357 50.0502 21.5631C49.7757 21.788 49.4243 21.9629 49.0058 22.083C48.5921 22.2019 48.0899 22.2621 47.5129 22.2621H43.6712V17.0188H47.5129C48.09 17.0188 48.5923 17.079 49.0058 17.1979C49.4244 17.3184 49.7758 17.4934 50.0502 17.7181C50.3277 17.9453 50.5333 18.225 50.6614 18.5495C50.7872 18.8684 50.8509 19.2333 50.8509 19.6339L50.8509 19.6469ZM94.0684 13.8505L93.8399 13.4915C93.6663 13.2186 93.4436 12.9603 93.1781 12.7237C92.9116 12.4866 92.6056 12.2799 92.2686 12.1093C91.9293 11.9378 91.552 11.8022 91.1471 11.7062C90.7399 11.6099 90.2913 11.5611 89.8139 11.5611C89.2764 11.5611 88.7486 11.6292 88.2451 11.7633C87.7421 11.8977 87.2644 12.1016 86.8254 12.3693C86.3851 12.6378 85.9769 12.9715 85.6123 13.3612C85.2472 13.7514 84.9304 14.2108 84.6708 14.7266C84.4096 15.2443 84.2045 15.8276 84.0612 16.4601C83.9177 17.0928 83.845 17.7959 83.845 18.5498V18.5754C83.845 19.3212 83.9177 20.0221 84.0612 20.6588C84.2044 21.2952 84.4095 21.8806 84.6707 22.3988C84.9304 22.9145 85.2472 23.3739 85.6123 23.764C85.9776 24.1544 86.3857 24.4883 86.8253 24.7564C87.2647 25.0239 87.7424 25.2277 88.245 25.362C88.7486 25.4961 89.2764 25.5641 89.8139 25.5641C90.2929 25.5641 90.7414 25.5153 91.147 25.4191C91.5534 25.3227 91.9307 25.1871 92.2686 25.016C92.6049 24.846 92.9108 24.6393 93.178 24.4016C93.4437 24.1648 93.6664 23.9065 93.8399 23.6338L94.0684 23.2746V25.164H97.6157V6.43628H94.0684L94.0684 13.8505ZM94.1846 18.5498V18.5754C94.1846 19.036 94.1515 19.4686 94.0862 19.8611C94.0204 20.2551 93.9224 20.6156 93.7949 20.9326C93.6659 21.2522 93.5037 21.5381 93.3128 21.7824C93.1208 22.0278 92.9009 22.2363 92.6593 22.4018C92.4181 22.5674 92.1524 22.6946 91.8697 22.7798C91.5887 22.8646 91.2791 22.9076 90.9496 22.9076C90.6205 22.9076 90.309 22.8646 90.0237 22.78C89.7362 22.6946 89.4701 22.5671 89.233 22.4012C88.9958 22.2357 88.7783 22.0275 88.5869 21.7824C88.3955 21.5381 88.2333 21.2522 88.1047 20.9325C87.9773 20.6164 87.8793 20.256 87.8134 19.8611C87.7481 19.4689 87.715 19.0364 87.715 18.5754V18.5498C87.715 18.0893 87.7481 17.6567 87.8134 17.2642C87.8792 16.87 87.9772 16.5095 88.1046 16.1928C88.2331 15.8735 88.3954 15.5877 88.5868 15.3433C88.7788 15.0976 88.9962 14.8892 89.233 14.724C89.4701 14.5585 89.7361 14.4311 90.0239 14.3452C90.3102 14.2606 90.6217 14.2177 90.9496 14.2177C91.2779 14.2177 91.5874 14.2607 91.8699 14.3455C92.1525 14.4311 92.4181 14.5583 92.6593 14.7234C92.9004 14.8887 93.1203 15.0972 93.3128 15.3433C93.5039 15.5877 93.6661 15.8735 93.7949 16.1928C93.9226 16.5103 94.0205 16.8708 94.0862 17.2642C94.1515 17.657 94.1846 18.0896 94.1846 18.5498ZM139.712 14.8966C139.596 14.4034 139.422 13.9652 139.195 13.5944C138.97 13.225 138.689 12.9086 138.361 12.6542C138.03 12.3985 137.64 12.1847 137.202 12.019C136.76 11.8524 136.261 11.7319 135.718 11.6609C135.17 11.5893 134.567 11.553 133.928 11.553C132.988 11.553 132.131 11.6592 131.38 11.8686C130.635 12.0771 129.991 12.3806 129.468 12.7708C128.947 13.1594 128.539 13.6322 128.255 14.1763C127.988 14.6867 127.833 15.2672 127.795 15.9034H131.363C131.381 15.5812 131.443 15.2984 131.548 15.0616C131.666 14.7921 131.838 14.569 132.059 14.3986C132.277 14.2309 132.542 14.1071 132.848 14.0307C133.147 13.956 133.485 13.9181 133.851 13.9181C134.226 13.9181 134.564 13.956 134.856 14.0309C135.153 14.1077 135.411 14.2344 135.621 14.4076C135.833 14.5827 135.994 14.8087 136.099 15.0793L136.101 15.0847L136.103 15.0902C136.207 15.4531 136.181 15.7572 136.024 16.0199C135.582 16.7592 134.159 17.0688 131.802 17.5817C131.328 17.6848 130.838 17.7913 130.306 17.9122C128.679 18.2817 127.174 18.9888 127.174 21.6375C127.174 22.2561 127.294 22.8152 127.532 23.2992C127.771 23.7838 128.106 24.1982 128.529 24.5309C128.954 24.8653 129.468 25.1231 130.057 25.2972C130.649 25.4723 131.305 25.5611 132.007 25.5611C132.526 25.5611 133.018 25.525 133.467 25.4537C133.948 25.3773 134.349 25.269 134.693 25.1226C135.652 24.7149 136.089 23.866 136.093 23.8577L136.328 23.3899V25.164H139.875V16.615C139.884 15.9705 139.829 15.3923 139.712 14.8966ZM136.166 20.9356C135.846 21.8474 135.161 23.0062 133.718 23.3488C133.483 23.4045 133.241 23.4327 132.997 23.4327C131.914 23.4327 131.058 22.8856 130.818 22.0389C130.659 21.4766 130.696 20.9905 130.93 20.5939C131.19 20.1513 131.686 19.8417 132.402 19.6737C132.607 19.6255 132.815 19.5795 133.024 19.5334C134.206 19.2722 135.428 19.0021 136.251 18.2904L136.409 18.1542L136.453 18.3577C136.545 18.7769 136.548 19.8475 136.166 20.9356ZM67.7807 13.5944C67.5547 13.2248 67.2738 12.9085 66.9459 12.6542C66.6156 12.3984 66.2256 12.1847 65.7868 12.019C65.3452 11.8524 64.846 11.7319 64.3032 11.6609C63.7549 11.5893 63.1527 11.553 62.5132 11.553C61.573 11.553 60.7158 11.6592 59.9657 11.8686C59.2196 12.0771 58.5762 12.3806 58.0532 12.7708C57.5325 13.1593 57.1244 13.6322 56.8401 14.1763C56.5733 14.6867 56.4187 15.2671 56.3799 15.9034H59.9479C59.9663 15.5812 60.0284 15.2984 60.1328 15.0616C60.2514 14.792 60.4236 14.5689 60.6444 14.3986C60.862 14.2309 61.1274 14.1071 61.433 14.0307C61.7323 13.956 62.0699 13.9181 62.4363 13.9181C62.8116 13.9181 63.1494 13.956 63.4407 14.0309C63.7385 14.1077 63.9959 14.2344 64.2061 14.4076C64.4179 14.5828 64.5788 14.8088 64.6844 15.0793L64.6865 15.0847L64.6881 15.0902C64.792 15.4531 64.7662 15.7572 64.6092 16.0199C64.1674 16.7592 62.7445 17.0687 60.387 17.5817C59.9134 17.6848 59.4235 17.7913 58.8917 17.9122C57.2646 18.2817 55.759 18.9888 55.759 21.6375C55.759 22.2561 55.8797 22.8152 56.1176 23.2992C56.3559 23.7839 56.6911 24.1983 57.1142 24.5309C57.5395 24.8653 58.0534 25.1232 58.6418 25.2972C59.234 25.4723 59.8901 25.5611 60.5919 25.5611C61.1116 25.5611 61.6028 25.525 62.0519 25.4537C62.5329 25.3773 62.934 25.269 63.2781 25.1226C64.2367 24.7149 64.6743 23.866 64.6785 23.8577L64.9132 23.39V25.164H68.4605V16.615C68.4688 15.9705 68.4139 15.3923 68.2974 14.8966C68.1811 14.4034 68.0073 13.9652 67.7807 13.5944ZM64.7511 20.9356C64.431 21.8474 63.7464 23.0062 62.3029 23.3488C62.0682 23.4045 61.8258 23.4327 61.5825 23.4327C60.4988 23.4327 59.6434 22.8856 59.4034 22.0389C59.244 21.4766 59.2815 20.9905 59.515 20.5939C59.7755 20.1513 60.2708 19.8417 60.9869 19.6737C61.1925 19.6255 61.4006 19.5795 61.6092 19.5334C62.7908 19.2722 64.0127 19.0022 64.8364 18.2904L64.9939 18.1542L65.0385 18.3577C65.1301 18.7769 65.1332 19.8475 64.7511 20.9356ZM110.939 13.5944C110.713 13.2249 110.432 12.9085 110.104 12.6542C109.774 12.3984 109.384 12.1847 108.945 12.019C108.503 11.8524 108.004 11.7319 107.461 11.6609C106.913 11.5893 106.311 11.553 105.671 11.553C104.731 11.553 103.874 11.6592 103.124 11.8686C102.378 12.0771 101.734 12.3806 101.211 12.7708C100.691 13.1595 100.282 13.6323 99.9983 14.1763C99.7315 14.6865 99.5769 15.267 99.5381 15.9034H103.106C103.124 15.5812 103.187 15.2984 103.291 15.0616C103.41 14.792 103.582 14.5689 103.803 14.3986C104.02 14.2309 104.285 14.1071 104.591 14.0307C104.89 13.956 105.228 13.9181 105.595 13.9181C105.97 13.9181 106.308 13.956 106.599 14.0309C106.897 14.1077 107.154 14.2344 107.364 14.4076C107.576 14.5828 107.737 14.8088 107.843 15.0793L107.845 15.0847L107.846 15.0902C107.95 15.4531 107.924 15.7572 107.767 16.0199C107.326 16.7592 105.903 17.0687 103.545 17.5817C103.072 17.6848 102.582 17.7913 102.05 17.9122C100.423 18.2817 98.9171 18.9888 98.9171 21.6375C98.9171 22.2561 99.0378 22.8152 99.2758 23.2992C99.514 23.7838 99.8493 24.1982 100.272 24.5309C100.698 24.8653 101.212 25.1231 101.8 25.2972C102.392 25.4723 103.048 25.5611 103.75 25.5611C104.27 25.5611 104.761 25.525 105.21 25.4537C105.691 25.3773 106.092 25.2689 106.436 25.1226C107.395 24.7149 107.833 23.866 107.837 23.8577L108.071 23.39V25.164H111.619V16.615C111.627 15.9704 111.572 15.3922 111.456 14.8966C111.339 14.4035 111.165 13.9654 110.939 13.5944ZM107.909 20.9356C107.589 21.8474 106.904 23.0062 105.461 23.3488C105.226 23.4045 104.984 23.4327 104.741 23.4327C103.657 23.4327 102.802 22.8856 102.561 22.0389C102.402 21.4766 102.44 20.9905 102.673 20.5939C102.934 20.1513 103.429 19.8417 104.145 19.6737C104.351 19.6255 104.559 19.5795 104.767 19.5334C105.949 19.2722 107.171 19.0022 107.994 18.2904L108.152 18.1542L108.197 18.3577C108.288 18.7769 108.291 19.8475 107.909 20.9356Z" fill="#2B2A2A"/>
</g>
<path d="M156.127 25.0195L151.644 10.3027H153.627L157.171 22.3633H157.181L160.56 10.293H161.732L165.892 22.5586H165.902L169.554 10.3027H170.502L166.068 25.0195H164.857L160.736 12.9883H160.726L157.338 25.0195H156.127ZM171.883 25V14.5801H173.641V17.3438C173.758 16.9792 173.914 16.6276 174.11 16.2891C174.305 15.944 174.543 15.638 174.823 15.3711C175.109 15.0977 175.431 14.8796 175.789 14.7168C176.154 14.554 176.561 14.4727 177.01 14.4727H177.215V16.1621H176.707C176.2 16.1621 175.754 16.2337 175.37 16.377C174.992 16.5137 174.673 16.7253 174.413 17.0117C174.159 17.2917 173.967 17.6432 173.836 18.0664C173.706 18.4896 173.641 18.9876 173.641 19.5605V25H171.883ZM181.566 25.2734C181.051 25.2734 180.573 25.2116 180.13 25.0879C179.687 24.9642 179.303 24.7819 178.978 24.541C178.652 24.2936 178.395 23.9876 178.206 23.623C178.024 23.2585 177.933 22.8353 177.933 22.3535V22.334C177.933 21.7155 178.096 21.1882 178.421 20.752C178.753 20.3092 179.232 19.9447 179.857 19.6582C180.482 19.3652 181.243 19.1471 182.142 19.0039C183.047 18.8607 184.075 18.776 185.228 18.75V17.8906C185.228 17.513 185.205 17.1777 185.159 16.8848C185.12 16.5918 185.055 16.3379 184.964 16.123C184.873 15.9082 184.759 15.7259 184.622 15.5762C184.486 15.4264 184.326 15.306 184.144 15.2148C183.961 15.1237 183.756 15.0586 183.529 15.0195C183.301 14.9805 183.043 14.9609 182.757 14.9609C182.327 14.9609 181.953 15.0098 181.634 15.1074C181.321 15.2051 181.058 15.3613 180.843 15.5762C180.635 15.791 180.478 16.0742 180.374 16.4258C180.27 16.7708 180.215 17.1908 180.208 17.6855H178.45C178.457 17.1322 178.564 16.6471 178.773 16.2305C178.988 15.8073 179.28 15.4557 179.652 15.1758C180.029 14.8893 180.482 14.6745 181.009 14.5312C181.536 14.388 182.126 14.3164 182.777 14.3164C183.226 14.3164 183.642 14.3424 184.027 14.3945C184.417 14.4466 184.769 14.5312 185.081 14.6484C185.394 14.7656 185.67 14.9186 185.911 15.1074C186.152 15.2962 186.351 15.5241 186.507 15.791C186.67 16.0579 186.79 16.3672 186.868 16.7188C186.953 17.0703 186.995 17.4707 186.995 17.9199L186.976 21.4941C186.976 21.8783 186.979 22.2298 186.986 22.5488C186.992 22.8678 187.005 23.1673 187.025 23.4473C187.044 23.7272 187.07 23.9941 187.103 24.248C187.142 24.4954 187.191 24.7461 187.249 25H185.55C185.524 24.8828 185.498 24.7559 185.472 24.6191C185.452 24.4824 185.433 24.3392 185.413 24.1895C185.394 24.0332 185.377 23.8737 185.364 23.7109C185.358 23.5482 185.355 23.3854 185.355 23.2227C185.192 23.5417 184.99 23.8281 184.749 24.082C184.515 24.3359 184.241 24.5508 183.929 24.7266C183.616 24.9023 183.262 25.0358 182.864 25.127C182.474 25.2246 182.041 25.2734 181.566 25.2734ZM182.093 24.5508C182.347 24.5508 182.604 24.5215 182.864 24.4629C183.125 24.4043 183.369 24.3164 183.597 24.1992C183.831 24.0755 184.049 23.9193 184.251 23.7305C184.453 23.5417 184.626 23.3203 184.769 23.0664C184.918 22.8125 185.036 22.526 185.12 22.207C185.205 21.8815 185.247 21.5202 185.247 21.123V19.4336C184.629 19.4466 184.062 19.4759 183.548 19.5215C183.034 19.5671 182.575 19.6387 182.171 19.7363C181.767 19.8275 181.416 19.9447 181.116 20.0879C180.817 20.2311 180.57 20.4069 180.374 20.6152C180.179 20.8171 180.032 21.0547 179.935 21.3281C179.837 21.5951 179.788 21.9043 179.788 22.2559V22.2754C179.788 22.6465 179.844 22.9753 179.954 23.2617C180.071 23.5482 180.231 23.7858 180.433 23.9746C180.641 24.1634 180.885 24.3066 181.165 24.4043C181.452 24.502 181.761 24.5508 182.093 24.5508ZM195.438 25.2734C194.975 25.2734 194.552 25.2181 194.168 25.1074C193.784 24.9967 193.439 24.8438 193.133 24.6484C192.833 24.4466 192.57 24.209 192.342 23.9355C192.114 23.6556 191.925 23.3464 191.775 23.0078V28.8477H190.018V14.5801H191.775V16.582C191.925 16.2435 192.114 15.9375 192.342 15.6641C192.57 15.3841 192.833 15.1465 193.133 14.9512C193.439 14.7493 193.784 14.5931 194.168 14.4824C194.552 14.3717 194.975 14.3164 195.438 14.3164C195.841 14.3164 196.235 14.3717 196.619 14.4824C197.003 14.5931 197.365 14.7559 197.703 14.9707C198.048 15.1855 198.364 15.4492 198.65 15.7617C198.937 16.0677 199.184 16.4258 199.393 16.8359C199.601 17.2396 199.764 17.6888 199.881 18.1836C199.998 18.6719 200.057 19.2057 200.057 19.7852V19.8145C200.057 20.3874 199.998 20.9212 199.881 21.416C199.764 21.9043 199.601 22.3535 199.393 22.7637C199.184 23.1673 198.937 23.5254 198.65 23.8379C198.364 24.1504 198.048 24.4141 197.703 24.6289C197.365 24.8372 197.003 24.9967 196.619 25.1074C196.235 25.2181 195.841 25.2734 195.438 25.2734ZM194.949 24.5508C195.255 24.5508 195.548 24.5085 195.828 24.4238C196.108 24.3327 196.365 24.1992 196.6 24.0234C196.84 23.8477 197.059 23.6263 197.254 23.3594C197.456 23.0924 197.625 22.7832 197.762 22.4316C197.905 22.0801 198.012 21.6862 198.084 21.25C198.156 20.8138 198.191 20.3353 198.191 19.8145V19.7754C198.191 19.2546 198.156 18.776 198.084 18.3398C198.012 17.9036 197.905 17.5098 197.762 17.1582C197.625 16.8066 197.456 16.5007 197.254 16.2402C197.059 15.9733 196.84 15.752 196.6 15.5762C196.365 15.3939 196.108 15.2604 195.828 15.1758C195.548 15.0911 195.255 15.0488 194.949 15.0488C194.643 15.0488 194.35 15.0911 194.07 15.1758C193.797 15.2604 193.54 15.3939 193.299 15.5762C193.064 15.752 192.85 15.9733 192.654 16.2402C192.459 16.5007 192.29 16.8066 192.146 17.1582C192.01 17.5098 191.902 17.9036 191.824 18.3398C191.753 18.776 191.717 19.2546 191.717 19.7754V19.8145C191.717 20.3353 191.753 20.8138 191.824 21.25C191.902 21.6862 192.01 22.0801 192.146 22.4316C192.29 22.7832 192.459 23.0924 192.654 23.3594C192.85 23.6198 193.064 23.8411 193.299 24.0234C193.54 24.1992 193.8 24.3327 194.08 24.4238C194.36 24.5085 194.65 24.5508 194.949 24.5508ZM207.923 25.2734C207.46 25.2734 207.037 25.2181 206.653 25.1074C206.269 24.9967 205.924 24.8438 205.618 24.6484C205.318 24.4466 205.055 24.209 204.827 23.9355C204.599 23.6556 204.41 23.3464 204.261 23.0078V28.8477H202.503V14.5801H204.261V16.582C204.41 16.2435 204.599 15.9375 204.827 15.6641C205.055 15.3841 205.318 15.1465 205.618 14.9512C205.924 14.7493 206.269 14.5931 206.653 14.4824C207.037 14.3717 207.46 14.3164 207.923 14.3164C208.326 14.3164 208.72 14.3717 209.104 14.4824C209.488 14.5931 209.85 14.7559 210.188 14.9707C210.533 15.1855 210.849 15.4492 211.136 15.7617C211.422 16.0677 211.669 16.4258 211.878 16.8359C212.086 17.2396 212.249 17.6888 212.366 18.1836C212.483 18.6719 212.542 19.2057 212.542 19.7852V19.8145C212.542 20.3874 212.483 20.9212 212.366 21.416C212.249 21.9043 212.086 22.3535 211.878 22.7637C211.669 23.1673 211.422 23.5254 211.136 23.8379C210.849 24.1504 210.533 24.4141 210.188 24.6289C209.85 24.8372 209.488 24.9967 209.104 25.1074C208.72 25.2181 208.326 25.2734 207.923 25.2734ZM207.434 24.5508C207.74 24.5508 208.033 24.5085 208.313 24.4238C208.593 24.3327 208.85 24.1992 209.085 24.0234C209.326 23.8477 209.544 23.6263 209.739 23.3594C209.941 23.0924 210.11 22.7832 210.247 22.4316C210.39 22.0801 210.498 21.6862 210.569 21.25C210.641 20.8138 210.677 20.3353 210.677 19.8145V19.7754C210.677 19.2546 210.641 18.776 210.569 18.3398C210.498 17.9036 210.39 17.5098 210.247 17.1582C210.11 16.8066 209.941 16.5007 209.739 16.2402C209.544 15.9733 209.326 15.752 209.085 15.5762C208.85 15.3939 208.593 15.2604 208.313 15.1758C208.033 15.0911 207.74 15.0488 207.434 15.0488C207.128 15.0488 206.835 15.0911 206.555 15.1758C206.282 15.2604 206.025 15.3939 205.784 15.5762C205.55 15.752 205.335 15.9733 205.139 16.2402C204.944 16.5007 204.775 16.8066 204.632 17.1582C204.495 17.5098 204.388 17.9036 204.309 18.3398C204.238 18.776 204.202 19.2546 204.202 19.7754V19.8145C204.202 20.3353 204.238 20.8138 204.309 21.25C204.388 21.6862 204.495 22.0801 204.632 22.4316C204.775 22.7832 204.944 23.0924 205.139 23.3594C205.335 23.6198 205.55 23.8411 205.784 24.0234C206.025 24.1992 206.285 24.3327 206.565 24.4238C206.845 24.5085 207.135 24.5508 207.434 24.5508ZM219.529 25.2734C218.982 25.2734 218.468 25.2116 217.986 25.0879C217.511 24.9642 217.078 24.7884 216.687 24.5605C216.296 24.3262 215.948 24.0462 215.642 23.7207C215.336 23.3887 215.079 23.0208 214.871 22.6172C214.662 22.207 214.503 21.7611 214.392 21.2793C214.282 20.7975 214.226 20.293 214.226 19.7656V19.7461C214.226 19.1927 214.285 18.6784 214.402 18.2031C214.526 17.7214 214.698 17.2819 214.92 16.8848C215.141 16.4811 215.405 16.1198 215.711 15.8008C216.023 15.4818 216.371 15.2148 216.755 15C217.14 14.7786 217.553 14.6094 217.996 14.4922C218.445 14.375 218.914 14.3164 219.402 14.3164C219.942 14.3164 220.444 14.3815 220.906 14.5117C221.368 14.6419 221.788 14.8242 222.166 15.0586C222.55 15.2865 222.885 15.5664 223.171 15.8984C223.464 16.224 223.709 16.5885 223.904 16.9922C224.099 17.3958 224.246 17.8288 224.343 18.291C224.441 18.7533 224.487 19.235 224.48 19.7363H216.052V19.7461C216.046 20.2669 216.078 20.7487 216.15 21.1914C216.222 21.6341 216.326 22.0378 216.463 22.4023C216.606 22.7604 216.778 23.0794 216.98 23.3594C217.188 23.6328 217.42 23.8672 217.673 24.0625C217.934 24.2513 218.22 24.3945 218.533 24.4922C218.852 24.5833 219.19 24.6289 219.548 24.6289C220.011 24.6289 220.414 24.5736 220.759 24.4629C221.104 24.3522 221.401 24.1862 221.648 23.9648C221.902 23.737 222.11 23.457 222.273 23.125C222.436 22.7865 222.563 22.3926 222.654 21.9434H224.392C224.282 22.4837 224.089 22.9622 223.816 23.3789C223.543 23.7956 223.198 24.1439 222.781 24.4238C222.371 24.7038 221.889 24.9154 221.336 25.0586C220.789 25.2018 220.186 25.2734 219.529 25.2734ZM219.402 14.9609C218.94 14.9609 218.517 15.0391 218.132 15.1953C217.748 15.3516 217.41 15.5957 217.117 15.9277C216.824 16.2533 216.586 16.6699 216.404 17.1777C216.222 17.6855 216.111 18.2943 216.072 19.0039V19.0137H222.625V19.0039C222.612 18.5742 222.566 18.1771 222.488 17.8125C222.41 17.4479 222.306 17.1159 222.175 16.8164C222.045 16.5169 221.886 16.2533 221.697 16.0254C221.508 15.791 221.296 15.5957 221.062 15.4395C220.834 15.2832 220.58 15.166 220.3 15.0879C220.02 15.0033 219.721 14.9609 219.402 14.9609ZM230.754 25.2734C230.351 25.2734 229.957 25.2181 229.573 25.1074C229.195 24.9967 228.834 24.8372 228.489 24.6289C228.15 24.4141 227.834 24.1504 227.541 23.8379C227.255 23.5254 227.008 23.1673 226.799 22.7637C226.591 22.3535 226.428 21.9043 226.311 21.416C226.194 20.9212 226.135 20.3874 226.135 19.8145V19.7852C226.135 19.2057 226.194 18.6719 226.311 18.1836C226.428 17.6888 226.591 17.2396 226.799 16.8359C227.008 16.4258 227.255 16.0677 227.541 15.7617C227.834 15.4492 228.15 15.1855 228.489 14.9707C228.834 14.7559 229.195 14.5931 229.573 14.4824C229.957 14.3717 230.351 14.3164 230.754 14.3164C231.217 14.3164 231.64 14.3717 232.024 14.4824C232.408 14.5931 232.75 14.7493 233.049 14.9512C233.355 15.1465 233.622 15.3841 233.85 15.6641C234.078 15.9375 234.267 16.2435 234.416 16.582V10.3027H236.184V25H234.416V23.0078C234.267 23.3464 234.078 23.6556 233.85 23.9355C233.622 24.209 233.355 24.4466 233.049 24.6484C232.75 24.8438 232.408 24.9967 232.024 25.1074C231.64 25.2181 231.217 25.2734 230.754 25.2734ZM231.252 24.5508C231.552 24.5508 231.842 24.5085 232.121 24.4238C232.401 24.3327 232.659 24.1992 232.893 24.0234C233.134 23.8411 233.352 23.6198 233.547 23.3594C233.743 23.0924 233.909 22.7832 234.045 22.4316C234.189 22.0801 234.296 21.6862 234.368 21.25C234.446 20.8138 234.485 20.3353 234.485 19.8145V19.7852C234.485 19.2578 234.446 18.7793 234.368 18.3496C234.296 17.9134 234.189 17.5195 234.045 17.168C233.909 16.8164 233.743 16.5072 233.547 16.2402C233.352 15.9733 233.134 15.752 232.893 15.5762C232.659 15.4004 232.401 15.2702 232.121 15.1855C231.848 15.0944 231.558 15.0488 231.252 15.0488C230.946 15.0488 230.653 15.0911 230.373 15.1758C230.093 15.2604 229.83 15.3939 229.582 15.5762C229.342 15.752 229.123 15.9733 228.928 16.2402C228.733 16.5007 228.567 16.8066 228.43 17.1582C228.293 17.5098 228.186 17.9036 228.108 18.3398C228.03 18.776 227.991 19.2578 227.991 19.7852V19.8145C227.991 20.3353 228.03 20.8138 228.108 21.25C228.186 21.6862 228.293 22.0801 228.43 22.4316C228.567 22.7832 228.733 23.0924 228.928 23.3594C229.123 23.6198 229.342 23.8411 229.582 24.0234C229.83 24.1992 230.093 24.3327 230.373 24.4238C230.653 24.5085 230.946 24.5508 231.252 24.5508Z" fill="black"/>
<defs>
<clipPath id="clip0_228_13098">
<rect width="19.2" height="20.6769" fill="white" transform="translate(6.39999 5.66162)"/>
</clipPath>
<clipPath id="clip1_228_13098">
<rect width="100" height="19.3757" fill="white" transform="translate(40 6.31226)"/>
</clipPath>
</defs>
</svg>
